<?xml version="1.0" encoding="utf-8"?>
<!-- Generator: Adobe Illustrator 19.2.1, SVG Export Plug-In . SVG Version: 6.00 Build 0)  -->
<svg version="1.1"
	 id="svg2" xmlns:cc="http://creativecommons.org/ns#" xmlns:dc="http://purl.org/dc/elements/1.1/" xmlns:osb="http://www.openswatchbook.org/uri/2009/osb" xmlns:rdf="http://www.w3.org/1999/02/22-rdf-syntax-ns#" xmlns:svg="http://www.w3.org/2000/svg"
	 xmlns="http://www.w3.org/2000/svg" xmlns:xlink="http://www.w3.org/1999/xlink" x="0px" y="0px" viewBox="0 0 1648 1653.6"
	 style="enable-background:new 0 0 1648 1653.6;" xml:space="preserve">
<style type="text/css">
	.st0{fill:#DF4F4F;}
	.st1{fill:#D44F4F;}
</style>
<title  id="title4658">meteor-ionic-logo</title>
<g id="g5008" transform="matrix(1.2248815,0,0,1.2248815,-70.464195,-172.61675)">
</g>
<g>
	<g>
		<g>
			<path class="st0" d="M89.7,100.4L1235.2,1272c0,0,39,26.6,68.9-4.4c29.8-31,6.9-62,6.9-62L89.7,100.4L89.7,100.4z"/>
			<path class="st0" d="M452.4,211.1l872.3,908c0,0,39,26.6,68.9-4.4c29.8-31,6.9-62,6.9-62L452.4,211.1L452.4,211.1z"/>
			<path class="st0" d="M197.6,448.1l872.3,908c0,0,39,26.6,68.9-4.4c29.8-31,6.9-62,6.9-62L197.6,448.1L197.6,448.1z"/>
			<path class="st0" d="M759,306.4l609.4,634.4c0,0,27.3,18.6,48.1-3.1c20.8-21.7,4.8-43.3,4.8-43.3L759,306.4L759,306.4z"/>
			<path class="st0" d="M281.6,722.7L891,1357.1c0,0,27.3,18.6,48.1-3.1s4.8-43.3,4.8-43.3L281.6,722.7L281.6,722.7z"/>
			<path class="st0" d="M1072.2,443.7l276.2,288.4c0,0,13.5,8.7,23.8-1.5s2.4-20.3,2.4-20.3L1072.2,443.7L1072.2,443.7z"/>
			<path class="st0" d="M434.1,1015.1l276.2,288.4c0,0,13.5,8.7,23.8-1.4c10.3-10.2,2.4-20.3,2.4-20.3L434.1,1015.1L434.1,1015.1z"
				/>
		</g>
	</g>
	<path class="st1" d="M1595.7,658.3C1569,532,1513.5,419.1,1437.6,325c11.7-18.4,18.5-40.2,18.5-63.6c0-65.5-53.1-118.7-118.7-118.7
		c-26.9,0-51.8,9-71.7,24.1c-130-88.3-286-138-449.2-137c-52.6,0.3-106,5.9-159.4,17.2c-148,31.3-277.6,102.1-380,199.1l26.4,26.4
		c97.5-91.9,220.6-159,361.4-188.7c51-10.8,101.9-16.1,152-16.5c153.4-1,300,45,422.8,126.9c-13.2,19.1-20.9,42.3-20.9,67.3
		c0,65.5,53.1,118.7,118.7,118.7c28.5,0,54.7-10.1,75.1-26.8c70.3,88.6,121.6,194.5,146.6,312.7c86.2,408-174.3,808.1-582.3,894.4
		c-408,86.2-808.1-174.3-894.3-582.3C29.8,728.6,106.8,482,267.8,308.3L241.5,282C71.8,464.4-9.6,723.7,45.8,985.8
		c90.4,427.8,510.9,701.6,938.7,611.2S1686.1,1086.1,1595.7,658.3z M1423.8,261.8c0,0.5,0,1-0.1,1.4c0,0.7-0.1,1.4-0.1,2.1
		c0,0.7-0.1,1.4-0.2,2.1c-0.1,0.8-0.1,1.6-0.2,2.3c-0.1,0.5-0.1,1.1-0.2,1.6c-0.1,0.9-0.2,1.9-0.4,2.8c-0.1,0.3-0.1,0.6-0.2,1
		c-0.2,1.1-0.4,2.3-0.7,3.4c0,0,0,0,0,0.1c-7.1,32.6-32.7,58.2-65.3,65.3c0,0,0,0-0.1,0c-1.1,0.2-2.3,0.5-3.4,0.7
		c-0.3,0.1-0.6,0.1-0.9,0.2c-0.9,0.2-1.8,0.3-2.8,0.4c-0.5,0.1-1.1,0.1-1.6,0.2c-0.8,0.1-1.5,0.2-2.3,0.2c-0.7,0.1-1.4,0.1-2.1,0.2
		c-0.7,0-1.4,0.1-2.1,0.1c-0.5,0-0.9,0.1-1.4,0.1c-0.4,0-0.9,0-1.3,0c-0.1,0-0.2,0-0.3,0c-0.1,0-0.1,0-0.2,0c-1.3,0-2.6,0-3.9-0.1
		c-0.2,0-0.3,0-0.5,0c-1.3-0.1-2.6-0.2-3.8-0.3c-0.2,0-0.4,0-0.5-0.1c-1.3-0.1-2.5-0.3-3.8-0.5c-0.2,0-0.4-0.1-0.5-0.1
		c-1.2-0.2-2.5-0.4-3.7-0.7c-0.2,0-0.4-0.1-0.5-0.1c-1.2-0.3-2.4-0.5-3.6-0.8c-0.2,0-0.4-0.1-0.5-0.1c-1.2-0.3-2.4-0.6-3.5-1
		c-0.2-0.1-0.3-0.1-0.5-0.2c-1.2-0.4-2.3-0.8-3.5-1.2c-0.2-0.1-0.3-0.1-0.5-0.2c-1.2-0.4-2.3-0.9-3.4-1.3c-0.2-0.1-0.3-0.1-0.5-0.2
		c-1.1-0.5-2.2-1-3.3-1.5c-0.1-0.1-0.3-0.1-0.4-0.2c-1.1-0.5-2.2-1.1-3.3-1.7c-0.1-0.1-0.3-0.1-0.4-0.2c-1.1-0.6-2.2-1.2-3.2-1.9
		c-0.1-0.1-0.2-0.1-0.3-0.2c-1.1-0.7-2.1-1.3-3.2-2c-0.1-0.1-0.2-0.1-0.3-0.2c-1-0.7-2.1-1.4-3.1-2.2c-0.1-0.1-0.2-0.1-0.2-0.2
		c-1-0.8-2-1.6-3-2.4c-0.1,0-0.1-0.1-0.2-0.1c-1-0.8-2-1.7-3-2.6c0,0-0.1-0.1-0.1-0.1c-1-0.9-2-1.8-2.9-2.8c0,0,0,0,0,0
		c-0.9-0.9-1.9-1.9-2.8-2.9c0,0-0.1-0.1-0.1-0.1c-0.9-1-1.7-2-2.6-3c0-0.1-0.1-0.1-0.1-0.2c-0.8-1-1.6-2-2.4-3
		c-0.1-0.1-0.1-0.2-0.2-0.2c-0.8-1-1.5-2-2.2-3.1c-0.1-0.1-0.1-0.2-0.2-0.3c-0.7-1-1.4-2.1-2-3.2c-0.1-0.1-0.1-0.2-0.2-0.4
		c-0.6-1.1-1.3-2.1-1.8-3.2c-0.1-0.1-0.1-0.3-0.2-0.4c-0.6-1.1-1.1-2.2-1.7-3.3c-0.1-0.1-0.1-0.3-0.2-0.4c-0.5-1.1-1-2.2-1.5-3.4
		c-0.1-0.2-0.1-0.3-0.2-0.5c-0.5-1.1-0.9-2.3-1.3-3.4c-0.1-0.2-0.1-0.3-0.2-0.5c-0.4-1.1-0.8-2.3-1.2-3.5c-0.1-0.2-0.1-0.3-0.2-0.5
		c-0.4-1.2-0.7-2.4-1-3.5c0-0.2-0.1-0.4-0.1-0.5c-0.3-1.2-0.6-2.4-0.8-3.6c0-0.2-0.1-0.4-0.1-0.5c-0.2-1.2-0.5-2.4-0.7-3.7
		c0-0.2-0.1-0.4-0.1-0.5c-0.2-1.2-0.3-2.5-0.5-3.8c0-0.2,0-0.4-0.1-0.5c-0.1-1.3-0.2-2.5-0.3-3.8c0-0.2,0-0.3,0-0.5
		c-0.1-1.3-0.1-2.6-0.1-3.9c0-0.1,0-0.1,0-0.2c0-0.1,0-0.2,0-0.3c0-0.4,0-0.9,0-1.3c0-0.5,0-1,0.1-1.4c0-0.7,0.1-1.4,0.1-2.1
		c0-0.7,0.1-1.4,0.2-2.1c0.1-0.8,0.1-1.6,0.2-2.3c0.1-0.5,0.1-1.1,0.2-1.6c0.1-0.9,0.2-1.9,0.4-2.8c0.1-0.3,0.1-0.6,0.2-0.9
		c0.2-1.2,0.4-2.3,0.7-3.4c0,0,0,0,0-0.1c7.1-32.6,32.7-58.2,65.3-65.3c0,0,0,0,0.1,0c1.1-0.2,2.3-0.5,3.4-0.7
		c0.3-0.1,0.6-0.1,0.9-0.2c0.9-0.2,1.8-0.3,2.8-0.4c0.5-0.1,1.1-0.1,1.6-0.2c0.8-0.1,1.5-0.2,2.3-0.2c0.7-0.1,1.4-0.1,2.1-0.2
		c0.7,0,1.4-0.1,2.1-0.1c0.5,0,0.9-0.1,1.4-0.1c0.4,0,0.9,0,1.3,0c0.1,0,0.2,0,0.3,0c0.1,0,0.1,0,0.2,0c1.3,0,2.6,0,3.9,0.1
		c0.2,0,0.3,0,0.5,0c1.3,0.1,2.6,0.2,3.8,0.3c0.2,0,0.4,0,0.5,0.1c1.3,0.1,2.5,0.3,3.8,0.5c0.2,0,0.4,0.1,0.5,0.1
		c1.2,0.2,2.5,0.4,3.7,0.7c0.2,0,0.4,0.1,0.5,0.1c1.2,0.3,2.4,0.5,3.6,0.8c0.2,0,0.4,0.1,0.5,0.1c1.2,0.3,2.4,0.6,3.5,1
		c0.2,0.1,0.3,0.1,0.5,0.2c1.2,0.4,2.3,0.8,3.5,1.2c0.2,0.1,0.3,0.1,0.5,0.2c1.2,0.4,2.3,0.9,3.4,1.3c0.2,0.1,0.3,0.1,0.5,0.2
		c1.1,0.5,2.2,1,3.4,1.5c0.1,0.1,0.3,0.1,0.4,0.2c1.1,0.5,2.2,1.1,3.3,1.7c0.1,0.1,0.3,0.1,0.4,0.2c1.1,0.6,2.2,1.2,3.2,1.9
		c0.1,0.1,0.2,0.1,0.3,0.2c1.1,0.7,2.1,1.3,3.2,2c0.1,0.1,0.2,0.1,0.3,0.2c1,0.7,2.1,1.4,3.1,2.2c0.1,0.1,0.2,0.1,0.2,0.2
		c1,0.8,2,1.6,3,2.4c0.1,0,0.1,0.1,0.2,0.1c1,0.8,2,1.7,3,2.6c0,0,0.1,0.1,0.1,0.1c1,0.9,2,1.8,2.9,2.8c0,0,0,0,0,0
		c0.9,0.9,1.9,1.9,2.8,2.9c0,0,0.1,0.1,0.1,0.1c0.9,1,1.7,2,2.6,3c0,0.1,0.1,0.1,0.1,0.2c0.8,1,1.6,2,2.4,3c0.1,0.1,0.1,0.2,0.2,0.2
		c0.8,1,1.5,2,2.2,3.1c0.1,0.1,0.1,0.2,0.2,0.3c0.7,1,1.4,2.1,2,3.2c0.1,0.1,0.1,0.2,0.2,0.4c0.6,1.1,1.3,2.1,1.8,3.2
		c0.1,0.1,0.1,0.3,0.2,0.4c0.6,1.1,1.1,2.2,1.7,3.3c0.1,0.1,0.1,0.3,0.2,0.4c0.5,1.1,1,2.2,1.5,3.3c0.1,0.2,0.1,0.3,0.2,0.5
		c0.5,1.1,0.9,2.3,1.3,3.4c0.1,0.2,0.1,0.3,0.2,0.5c0.4,1.1,0.8,2.3,1.2,3.5c0.1,0.2,0.1,0.3,0.2,0.5c0.4,1.2,0.7,2.4,1,3.5
		c0,0.2,0.1,0.4,0.1,0.5c0.3,1.2,0.6,2.4,0.8,3.6c0,0.2,0.1,0.4,0.1,0.5c0.2,1.2,0.5,2.4,0.7,3.7c0,0.2,0.1,0.4,0.1,0.5
		c0.2,1.2,0.3,2.5,0.5,3.8c0,0.2,0,0.4,0.1,0.5c0.1,1.3,0.2,2.5,0.3,3.8c0,0.2,0,0.3,0,0.5c0.1,1.3,0.1,2.6,0.1,3.9
		c0,0.1,0,0.1,0,0.2c0,0.1,0,0.2,0,0.3C1423.8,260.9,1423.8,261.4,1423.8,261.8z"/>
</g>
</svg>
