<?xml version="1.0" encoding="utf-8"?>
<!-- Generator: Adobe Illustrator 19.2.1, SVG Export Plug-In . SVG Version: 6.00 Build 0)  -->
<svg version="1.1"
	 id="svg2" xmlns:cc="http://creativecommons.org/ns#" xmlns:dc="http://purl.org/dc/elements/1.1/" xmlns:osb="http://www.openswatchbook.org/uri/2009/osb" xmlns:rdf="http://www.w3.org/1999/02/22-rdf-syntax-ns#" xmlns:svg="http://www.w3.org/2000/svg"
	 xmlns="http://www.w3.org/2000/svg" xmlns:xlink="http://www.w3.org/1999/xlink" x="0px" y="0px" viewBox="0 0 1989 512"
	 style="enable-background:new 0 0 1989 512;" xml:space="preserve">
<style type="text/css">
	.st0{fill:#373739;}
	.st1{font-family:'SourceSansPro-Light';}
	.st2{font-size:117.0135px;}
	.st3{letter-spacing:-3;}
	.st4{fill:#DF4F4F;}
	.st5{fill:#D44F4F;}
</style>
<title  id="title4658">meteor-ionic-logo</title>
<g id="g5008" transform="matrix(1.2248815,0,0,1.2248815,-70.464195,-172.61675)">
</g>
<g>
	<g>
		<path class="st0" d="M560.7,97h53.4l34.8,96.1c4.3,12.6,8.3,26.5,12.6,39.8h1.3c4.3-13.3,8-27.2,12.3-39.8L709.2,97h53v216.1
			h-44.4v-79.2c0-21.2,4-52.7,6.3-73.6h-1.3l-17.6,51.4l-30.8,82.5h-26.8l-30.8-82.5l-17.2-51.4h-1.3c2.3,20.9,6.3,52.4,6.3,73.6
			v79.2h-43.7V97H560.7z"/>
		<path class="st0" d="M800,97h135.2v41.1h-86.5v43.4h73.6v40.8h-73.6V272h89.8v41.1H800V97z"/>
		<path class="st0" d="M1010.4,138.1h-59.3V97h167.7v41.1h-59.3v175h-49L1010.4,138.1L1010.4,138.1z"/>
		<path class="st0" d="M1139.4,97h135.2v41.1h-86.5v43.4h73.6v40.8h-73.6V272h89.8v41.1h-138.5V97z"/>
		<path class="st0" d="M1297.5,204c0-70.6,39.8-111,98.1-111s98.1,40.8,98.1,111c0,70.6-39.8,113-98.1,113S1297.5,274.6,1297.5,204z
			 M1443.6,204c0-43.1-18.6-68.9-48.1-68.9s-48.1,25.9-48.1,68.9c0,43.4,18.6,70.9,48.1,70.9C1425.1,274.9,1443.6,247.4,1443.6,204z
			"/>
		<path class="st0" d="M1521.2,97h77.9c45.7,0,83.2,15.9,83.2,67.3c0,31.8-15.2,52-38.4,62.3l49.1,86.5h-54.7l-41.4-77.9h-26.8v77.9
			h-48.7V97H1521.2z M1595.1,196.4c25.5,0,39.4-10.9,39.4-32.1s-13.9-28.5-39.4-28.5h-25.2v60.6H1595.1z"/>
		<path class="st0" d="M1711.1,97h48.7v216.1h-48.7V97z"/>
		<path class="st0" d="M1787.3,206.3c0-71.6,47.4-113.3,102.1-113.3c27.8,0,50.4,13.3,65,28.2l-25.8,31.2
			c-10.9-9.9-22.5-17.2-38.1-17.2c-29.5,0-53,26.2-53,69.6c0,44.4,20.5,70.3,52.4,70.3c17.6,0,31.5-8.9,42.1-20.2l25.8,30.5
			c-17.9,20.9-41.8,31.8-69.9,31.8C1833,317,1787.3,278.9,1787.3,206.3z"/>
	</g>
	<text transform="matrix(1 0 0 1 682.3625 440.4523)" class="st0 st1 st2 st3">Build Ionic apps in Meteor!</text>
</g>
<g>
	<g>
		<g>
			<path class="st4" d="M48.4,41.4l341.4,349.2c0,0,11.6,7.9,20.5-1.3c8.9-9.2,2.1-18.5,2.1-18.5L48.4,41.4L48.4,41.4z"/>
			<path class="st4" d="M156.5,74.4l260,270.6c0,0,11.6,7.9,20.5-1.3c8.9-9.2,2.1-18.5,2.1-18.5L156.5,74.4L156.5,74.4z"/>
			<path class="st4" d="M80.5,145l260,270.6c0,0,11.6,7.9,20.5-1.3c8.9-9.2,2.1-18.5,2.1-18.5L80.5,145L80.5,145z"/>
			<path class="st4" d="M247.9,102.8l181.6,189.1c0,0,8.1,5.5,14.3-0.9c6.2-6.5,1.4-12.9,1.4-12.9L247.9,102.8L247.9,102.8z"/>
			<path class="st4" d="M105.6,226.9L287.2,416c0,0,8.1,5.5,14.3-0.9s1.4-12.9,1.4-12.9L105.6,226.9L105.6,226.9z"/>
			<path class="st4" d="M341.2,143.7l82.3,86c0,0,4,2.6,7.1-0.4c3.1-3,0.7-6.1,0.7-6.1L341.2,143.7L341.2,143.7z"/>
			<path class="st4" d="M151,314l82.3,86c0,0,4,2.6,7.1-0.4c3.1-3,0.7-6.1,0.7-6.1L151,314L151,314z"/>
		</g>
	</g>
	<path class="st5" d="M497.3,207.7c-8-37.6-24.5-71.3-47.1-99.3c3.5-5.5,5.5-12,5.5-19c0-19.5-15.8-35.4-35.4-35.4
		c-8,0-15.4,2.7-21.4,7.2C360.2,34.9,313.7,20.1,265,20.4c-15.7,0.1-31.6,1.8-47.5,5.1c-44.1,9.3-82.7,30.4-113.3,59.3l7.9,7.9
		c29-27.4,65.8-47.4,107.7-56.3c15.2-3.2,30.4-4.8,45.3-4.9c45.7-0.3,89.4,13.4,126,37.8c-3.9,5.7-6.2,12.6-6.2,20.1
		c0,19.5,15.8,35.4,35.4,35.4c8.5,0,16.3-3,22.4-8c21,26.4,36.2,58,43.7,93.2c25.7,121.6-52,240.9-173.6,266.6
		C191.2,502.3,71.9,424.6,46.2,303c-15.7-74.4,7.2-147.9,55.2-199.6l-7.9-7.9C43,149.9,18.8,227.2,35.3,305.3
		c26.9,127.5,152.3,209.1,279.8,182.2S524.2,335.2,497.3,207.7z M446,89.5c0,0.1,0,0.3,0,0.4c0,0.2,0,0.4,0,0.6c0,0.2,0,0.4,0,0.6
		c0,0.2,0,0.5-0.1,0.7c0,0.2,0,0.3-0.1,0.5c0,0.3-0.1,0.6-0.1,0.8c0,0.1,0,0.2-0.1,0.3c-0.1,0.3-0.1,0.7-0.2,1c0,0,0,0,0,0
		c-2.1,9.7-9.8,17.3-19.5,19.5c0,0,0,0,0,0c-0.3,0.1-0.7,0.1-1,0.2c-0.1,0-0.2,0-0.3,0.1c-0.3,0-0.6,0.1-0.8,0.1
		c-0.2,0-0.3,0-0.5,0.1c-0.2,0-0.5,0-0.7,0.1c-0.2,0-0.4,0-0.6,0c-0.2,0-0.4,0-0.6,0c-0.1,0-0.3,0-0.4,0c-0.1,0-0.3,0-0.4,0
		c0,0-0.1,0-0.1,0c0,0,0,0-0.1,0c-0.4,0-0.8,0-1.2,0c-0.1,0-0.1,0-0.2,0c-0.4,0-0.8,0-1.1-0.1c-0.1,0-0.1,0-0.2,0
		c-0.4,0-0.7-0.1-1.1-0.1c-0.1,0-0.1,0-0.2,0c-0.4-0.1-0.7-0.1-1.1-0.2c-0.1,0-0.1,0-0.2,0c-0.4-0.1-0.7-0.2-1.1-0.2
		c-0.1,0-0.1,0-0.2,0c-0.4-0.1-0.7-0.2-1.1-0.3c-0.1,0-0.1,0-0.2,0c-0.3-0.1-0.7-0.2-1-0.4c0,0-0.1,0-0.1-0.1
		c-0.3-0.1-0.7-0.3-1-0.4c0,0-0.1,0-0.1-0.1c-0.3-0.1-0.7-0.3-1-0.5c0,0-0.1,0-0.1-0.1c-0.3-0.2-0.7-0.3-1-0.5c0,0-0.1,0-0.1-0.1
		c-0.3-0.2-0.6-0.4-1-0.6c0,0-0.1,0-0.1-0.1c-0.3-0.2-0.6-0.4-0.9-0.6c0,0-0.1,0-0.1-0.1c-0.3-0.2-0.6-0.4-0.9-0.7c0,0,0,0-0.1-0.1
		c-0.3-0.2-0.6-0.5-0.9-0.7c0,0,0,0,0,0c-0.3-0.2-0.6-0.5-0.9-0.8c0,0,0,0,0,0c-0.3-0.3-0.6-0.5-0.9-0.8c0,0,0,0,0,0
		c-0.3-0.3-0.6-0.6-0.8-0.9c0,0,0,0,0,0c-0.3-0.3-0.5-0.6-0.8-0.9c0,0,0,0,0,0c-0.2-0.3-0.5-0.6-0.7-0.9c0,0,0,0-0.1-0.1
		c-0.2-0.3-0.4-0.6-0.7-0.9c0,0,0-0.1-0.1-0.1c-0.2-0.3-0.4-0.6-0.6-0.9c0,0,0-0.1-0.1-0.1c-0.2-0.3-0.4-0.6-0.6-1
		c0,0,0-0.1-0.1-0.1c-0.2-0.3-0.3-0.6-0.5-1c0,0,0-0.1-0.1-0.1c-0.2-0.3-0.3-0.7-0.5-1c0,0,0-0.1-0.1-0.1c-0.1-0.3-0.3-0.7-0.4-1
		c0,0,0-0.1-0.1-0.1c-0.1-0.3-0.2-0.7-0.4-1c0-0.1,0-0.1,0-0.2c-0.1-0.3-0.2-0.7-0.3-1.1c0-0.1,0-0.1,0-0.2
		c-0.1-0.4-0.2-0.7-0.2-1.1c0-0.1,0-0.1,0-0.2c-0.1-0.4-0.1-0.7-0.2-1.1c0-0.1,0-0.1,0-0.2c-0.1-0.4-0.1-0.7-0.1-1.1
		c0-0.1,0-0.1,0-0.2c0-0.4-0.1-0.8-0.1-1.1c0-0.1,0-0.1,0-0.2c0-0.4,0-0.8,0-1.2c0,0,0,0,0-0.1c0,0,0-0.1,0-0.1c0-0.1,0-0.3,0-0.4
		c0-0.1,0-0.3,0-0.4c0-0.2,0-0.4,0-0.6c0-0.2,0-0.4,0-0.6c0-0.2,0-0.5,0.1-0.7c0-0.2,0-0.3,0.1-0.5c0-0.3,0.1-0.6,0.1-0.8
		c0-0.1,0-0.2,0.1-0.3c0.1-0.3,0.1-0.7,0.2-1c0,0,0,0,0,0c2.1-9.7,9.8-17.3,19.5-19.5c0,0,0,0,0,0c0.3-0.1,0.7-0.1,1-0.2
		c0.1,0,0.2,0,0.3-0.1c0.3,0,0.6-0.1,0.8-0.1c0.2,0,0.3,0,0.5-0.1c0.2,0,0.5,0,0.7-0.1c0.2,0,0.4,0,0.6,0c0.2,0,0.4,0,0.6,0
		c0.1,0,0.3,0,0.4,0c0.1,0,0.3,0,0.4,0c0,0,0.1,0,0.1,0c0,0,0,0,0.1,0c0.4,0,0.8,0,1.2,0c0.1,0,0.1,0,0.2,0c0.4,0,0.8,0,1.1,0.1
		c0.1,0,0.1,0,0.2,0c0.4,0,0.7,0.1,1.1,0.1c0.1,0,0.1,0,0.2,0c0.4,0.1,0.7,0.1,1.1,0.2c0.1,0,0.1,0,0.2,0c0.4,0.1,0.7,0.2,1.1,0.2
		c0.1,0,0.1,0,0.2,0c0.4,0.1,0.7,0.2,1.1,0.3c0.1,0,0.1,0,0.2,0c0.3,0.1,0.7,0.2,1,0.4c0,0,0.1,0,0.1,0.1c0.3,0.1,0.7,0.3,1,0.4
		c0,0,0.1,0,0.1,0.1c0.3,0.1,0.7,0.3,1,0.5c0,0,0.1,0,0.1,0.1c0.3,0.2,0.7,0.3,1,0.5c0,0,0.1,0,0.1,0.1c0.3,0.2,0.6,0.4,1,0.6
		c0,0,0.1,0,0.1,0.1c0.3,0.2,0.6,0.4,0.9,0.6c0,0,0.1,0,0.1,0.1c0.3,0.2,0.6,0.4,0.9,0.7c0,0,0,0,0.1,0.1c0.3,0.2,0.6,0.5,0.9,0.7
		c0,0,0,0,0,0c0.3,0.2,0.6,0.5,0.9,0.8c0,0,0,0,0,0c0.3,0.3,0.6,0.5,0.9,0.8c0,0,0,0,0,0c0.3,0.3,0.6,0.6,0.8,0.9c0,0,0,0,0,0
		c0.3,0.3,0.5,0.6,0.8,0.9c0,0,0,0,0,0c0.2,0.3,0.5,0.6,0.7,0.9c0,0,0,0,0.1,0.1c0.2,0.3,0.4,0.6,0.7,0.9c0,0,0,0.1,0.1,0.1
		c0.2,0.3,0.4,0.6,0.6,0.9c0,0,0,0.1,0.1,0.1c0.2,0.3,0.4,0.6,0.6,1c0,0,0,0.1,0.1,0.1c0.2,0.3,0.3,0.6,0.5,1c0,0,0,0.1,0.1,0.1
		c0.2,0.3,0.3,0.7,0.5,1c0,0,0,0.1,0.1,0.1c0.1,0.3,0.3,0.7,0.4,1c0,0,0,0.1,0.1,0.1c0.1,0.3,0.2,0.7,0.4,1c0,0.1,0,0.1,0,0.2
		c0.1,0.3,0.2,0.7,0.3,1.1c0,0.1,0,0.1,0,0.2c0.1,0.4,0.2,0.7,0.2,1.1c0,0.1,0,0.1,0,0.2c0.1,0.4,0.1,0.7,0.2,1.1c0,0.1,0,0.1,0,0.2
		c0.1,0.4,0.1,0.7,0.1,1.1c0,0.1,0,0.1,0,0.2c0,0.4,0.1,0.8,0.1,1.1c0,0.1,0,0.1,0,0.2c0,0.4,0,0.8,0,1.2c0,0,0,0,0,0.1
		c0,0,0,0.1,0,0.1C446,89.3,446,89.4,446,89.5z"/>
</g>
</svg>
